<svg version="1.2" xmlns="http://www.w3.org/2000/svg" viewBox="0 0 1233 435" width="1233" height="435">
	<title>logo-06-svg</title>
	<style>
		.s0 { fill: #ffffff } 
		.s1 { fill: #3f8c96 } 
		.s2 { fill: #bdecd9 } 
	</style>
	<g id="Layer">
		<g id="Layer">
			<g id="Layer">
				<g id="Layer">
					<path id="Layer" fill-rule="evenodd" class="s0" d="m295 185.9h-19.9q-2.5 0-3.6-1.1-1.1-1.1-1.1-3.5v-83.8q0-2.5 1.1-3.5 1.1-1.1 3.6-1.1h43q14.5-0.1 20 6 5.5 6 5.5 15.5v6q0 5.4-1.7 9.2-1.6 3.8-5.6 5.5 7 0.8 11.3 5.7 4.4 4.9 4.4 13.1v27.4q-0.1 2.4-1.1 3.5-1.1 1.1-3.6 1.1h-20q-2.5 0-3.6-1.1-1.1-1.1-1.1-3.5v-19.8q0-2.9-1.1-4.2-1.1-1.4-3.8-1.4h-18.1v25.3q0 2.5-1.1 3.6-1.1 1.1-3.5 1.1zm4.6-53.2h9.7q3.4 0 4.5-1.8 1.2-1.7 1.2-4.3v-4.4q0-2.6-1.2-4.3-1.1-1.8-4.5-1.8h-9.7z"/>
					<path id="Layer" class="s0" d="m431.1 185.9h-60q-2.5 0-3.6-1.1-1.1-1.1-1.1-3.5v-83.8q0-2.5 1.1-3.5 1.1-1.1 3.6-1.1h60q2.4 0 3.5 1.1 1.1 1.1 1.1 3.5v15.1q0 2.5-1.1 3.6-1.1 1.1-3.5 1.1h-35.7v9.9h25.2q2.5 0 3.5 1.1 1.1 1.1 1.1 3.6v13.8q0 2.5-1.1 3.6-1.1 1.1-3.5 1.1h-25.2v11.1h35.7q2.4 0 3.5 1.1 1.1 1.1 1.1 3.6v15.1q0 2.4-1.1 3.5-1.1 1.1-3.5 1.1z"/>
					<path id="Layer" class="s0" d="m494.9 185.9h-20.9q-2.5 0-3.6-1.1-1.1-1.1-1.1-3.5v-63.5h-19q-2.4 0-3.5-1.1-1.1-1.1-1.1-3.6v-15.6q0-2.4 1.1-3.5 1.1-1.1 3.5-1.1h68.3q2.4 0 3.5 1.1 1.1 1.1 1.1 3.5v15.6q0 2.5-1.1 3.6-1.1 1.1-3.5 1.1h-19v63.5q0 2.4-1.1 3.5-1.1 1.1-3.6 1.1z"/>
					<path id="Layer" fill-rule="evenodd" class="s0" d="m557 181.3q0 2.4-1.1 3.5-1.1 1.1-3.6 1.1h-19q-2.4 0-3.5-1.1-1.1-1.1-1.1-3.5v-34.2q0-3.8 1.2-8.9 1.2-5 3.8-11.7l11.2-29.4q0.8-2.2 2.4-3.2 1.6-1 4.2-1h34.8q2.4 0 4.1 1 1.6 1 2.4 3.2l11.2 29.4q2.6 6.7 3.8 11.7 1.2 5.1 1.2 8.9v34.2q0 2.4-1.1 3.5-1.1 1.1-3.5 1.1h-19.5q-2.6 0-3.8-1.1-1.3-1.1-1.3-3.5v-18.1h-22.9v18.1zm7.4-61.3l-6.1 19.6h20.3l-6-19.6q-0.6-1.2-1.1-1.7-0.6-0.5-1.4-0.5h-3.2q-0.8 0-1.4 0.5-0.6 0.5-1.1 1.7z"/>
					<path id="Layer" class="s0" d="m627.5 185.9q-2.4 0-3.5-1.1-1.1-1.1-1.1-3.5v-15.4q0-2.5 1.1-3.6 1.1-1.1 3.5-1.1h12.8v-43.4h-12.8q-2.4 0-3.5-1.1-1.1-1.1-1.1-3.6v-15.6q0-2.5 1.1-3.5 1.1-1.1 3.5-1.1h55.1q2.4 0 3.5 1.1 1.1 1.1 1.1 3.5v15.6q0 2.5-1.1 3.6-1 1.1-3.5 1.1h-12.6v43.4h12.6q2.4 0 3.5 1.1 1.1 1.1 1.1 3.6v15.4q0 2.4-1.1 3.5-1 1.1-3.5 1.1z"/>
					<path id="Layer" class="s0" d="m773.6 185.9h-65.8q-2.5 0-3.6-1.1-1-1.1-1-3.5v-83.8q0-2.5 1-3.5 1.2-1.1 3.6-1.1h20q2.5 0 3.6 1.1 1.1 1.1 1.1 3.5v64h17.7v-21q0-2.4 1.1-3.5 1.1-1.1 3.6-1.1h18.7q2.5 0 3.5 1.1 1.1 1.1 1.1 3.5v40.7q0 2.5-1.1 3.6-1.1 1.1-3.5 1.1z"/>
				</g>
			</g>
			<g id="Layer">
				<g id="Layer">
					<path id="Layer" class="s0" d="m295.1 299.2h-20q-2.5 0-3.6-1.1-1.1-1.1-1.1-3.6v-83.7q0-2.5 1.1-3.6 1.1-1.1 3.6-1.1h57.6q2.5 0 3.6 1.1 1.1 1.1 1.1 3.6v15.4q0 2.4-1.1 3.5-1.1 1.1-3.6 1.1h-33v13.5h22.5q2.5 0 3.6 1.1 1.1 1.1 1.1 3.5v15.5q0 2.5-1.1 3.6-1.1 1.1-3.6 1.1h-22.5v25.4q0 2.5-1.1 3.6-1.1 1.1-3.5 1.1z"/>
					<path id="Layer" fill-rule="evenodd" class="s0" d="m428.5 274.8q0 5.9-1.8 10.8-1.7 4.8-6.2 8.2-4.4 3.5-12.2 5.4-7.9 1.9-19.9 1.9-12 0-19.9-1.9-7.9-1.9-12.3-5.4-4.5-3.4-6.2-8.2-1.8-4.9-1.8-10.8v-44.1q0-6 1.8-10.8 1.7-4.8 6.2-8.3 4.4-3.5 12.3-5.5 7.9-1.9 19.9-1.9 12 0 19.9 1.9 7.8 2 12.2 5.5 4.5 3.5 6.2 8.3 1.8 4.8 1.8 10.8zm-51-4.7q0.1 2.6 2 4.4 1.9 1.7 8.9 1.7 7 0 8.9-1.7 2-1.8 2-4.4v-34.7q0-2.5-2-4.2-1.9-1.8-8.9-1.8-7 0-8.9 1.8-1.9 1.7-2 4.2z"/>
					<path id="Layer" class="s0" d="m524.1 274.8q0 5.9-1.7 10.8-1.8 4.8-6.2 8.2-4.5 3.5-12.2 5.4-7.8 1.9-19.8 1.9-12 0-19.8-1.9-7.8-1.9-12.2-5.4-4.5-3.4-6.2-8.2-1.8-4.9-1.8-10.8v-64q0-2.5 1.1-3.6 1.1-1.1 3.6-1.1h20.3q2.4 0 3.5 1.1 1.1 1.1 1.1 3.6v58.9q0 2.6 2 4.4 1.9 1.7 8.6 1.7 6.9 0 8.8-1.7 2-1.8 2-4.4v-58.9q0-2.5 1.1-3.6 1.1-1.1 3.5-1.1h19.7q2.4 0 3.5 1.1 1.1 1.1 1.1 3.6z"/>
					<path id="Layer" class="s0" d="m565.4 299.2h-19.4q-2.5 0-3.6-1.1-1.1-1.1-1.1-3.6v-83.7q0-2.5 1.1-3.6 1.1-1.1 3.6-1.1h13.4q2.5 0 4.2 0.8 1.8 0.8 3.4 2.7l25.1 28.7v-27.5q0-2.5 1.1-3.6 1.1-1.1 3.6-1.1h19.4q2.4 0 3.5 1.1 1.1 1.1 1.1 3.6v83.7q0 2.5-1.1 3.6-1.1 1.1-3.5 1.1h-19.4q-2.5 0-3.6-1.1-1.1-1.1-1.1-3.6v-15.9l-22.1-26.7v42.6q0 2.5-1.1 3.6-1.1 1.1-3.5 1.1z"/>
					<path id="Layer" fill-rule="evenodd" class="s0" d="m686.9 299.2h-43.6q-2.5 0-3.5-1.1-1.1-1.1-1.1-3.6v-83.7q0-2.5 1.1-3.6 1.1-1.1 3.5-1.1h43.6q16.1 0 23.9 6.5 7.9 6.5 7.9 19.9v40.3q0 13.5-7.9 19.9-7.8 6.5-23.9 6.5zm-18.9-68.4v44h15.4q3.1 0 4.6-1.6 1.4-1.5 1.5-4.7v-31.5q-0.1-3.2-1.5-4.7-1.5-1.5-4.6-1.5z"/>
					<path id="Layer" fill-rule="evenodd" class="s0" d="m761.4 294.5q0 2.5-1.1 3.6-1.1 1.1-3.5 1.1h-19q-2.5 0-3.6-1.1-1.1-1.1-1.1-3.6v-34.1q0-3.8 1.3-8.9 1.2-5 3.8-11.7l11.2-29.4q0.8-2.2 2.4-3.2 1.6-1.1 4.2-1.1h34.8q2.4 0.1 4 1.1 1.7 1 2.4 3.2l11.3 29.4q2.6 6.7 3.8 11.7 1.2 5 1.2 8.9v34.1q0 2.5-1.1 3.6-1.1 1.1-3.5 1.1h-19.6q-2.5 0-3.8-1.1-1.2-1.1-1.2-3.6v-18h-22.9v18zm7.4-61.2l-6.1 19.6h20.3l-6.1-19.6q-0.5-1.2-1.1-1.7-0.6-0.5-1.3-0.5h-3.3q-0.7 0-1.3 0.5-0.6 0.5-1.1 1.7z"/>
					<path id="Layer" class="s0" d="m868.2 299.2h-20.9q-2.5 0-3.6-1.1-1.1-1.1-1.1-3.6v-63.4h-19q-2.4 0-3.5-1.1-1.1-1.1-1.1-3.6v-15.6q0-2.5 1.1-3.6 1.1-1.1 3.5-1.1h68.3q2.4 0 3.5 1.1 1.1 1.1 1.1 3.6v15.6q0 2.5-1.1 3.6-1.1 1.1-3.5 1.1h-19v63.4q0 2.5-1.1 3.6-1.1 1.1-3.6 1.1z"/>
					<path id="Layer" class="s0" d="m911.6 299.2q-2.4 0-3.5-1.1-1.1-1.1-1.1-3.6v-15.3q0-2.5 1.1-3.6 1.1-1.1 3.5-1.1h12.8v-43.4h-12.8q-2.4 0-3.5-1.1-1.1-1.1-1.1-3.6v-15.6q0-2.5 1.1-3.6 1.1-1.1 3.5-1.1h55.1q2.4 0 3.5 1.1 1.1 1.1 1.1 3.6v15.6q0 2.5-1.1 3.6-1.1 1.1-3.5 1.1h-12.5v43.4h12.5q2.4 0 3.5 1.1 1.1 1.1 1.1 3.6v15.3q0 2.5-1.1 3.6-1.1 1.1-3.5 1.1z"/>
					<path id="Layer" fill-rule="evenodd" class="s0" d="m1066.1 274.8q0 5.9-1.8 10.8-1.7 4.8-6.2 8.2-4.4 3.5-12.2 5.4-7.9 1.9-19.9 1.9-12 0-19.9-1.9-7.9-1.9-12.3-5.4-4.5-3.4-6.2-8.2-1.8-4.9-1.8-10.8v-44.1q0-6 1.8-10.8 1.7-4.8 6.2-8.3 4.4-3.5 12.3-5.5 7.9-1.9 19.9-1.9 12 0 19.9 1.9 7.8 2 12.2 5.5 4.5 3.5 6.2 8.3 1.8 4.8 1.8 10.8zm-50.9-4.7q0 2.6 1.9 4.4 1.9 1.7 8.9 1.7 7 0 9-1.7 1.9-1.8 1.9-4.4v-34.7q0-2.5-1.9-4.2-2-1.8-9-1.8-6.9 0-8.9 1.8-1.9 1.7-1.9 4.2z"/>
					<path id="Layer" class="s0" d="m1106.5 299.2h-19.3q-2.5 0-3.6-1.1-1.1-1.1-1.1-3.6v-83.7q0-2.5 1.1-3.6 1.1-1.1 3.6-1.1h13.4q2.5 0 4.2 0.8 1.7 0.8 3.4 2.7l25.1 28.7v-27.5q0-2.5 1.1-3.6 1.1-1.1 3.5-1.1h19.4q2.5 0 3.6 1.1 1.1 1.1 1.1 3.6v83.7q0 2.5-1.1 3.6-1.1 1.1-3.6 1.1h-19.4q-2.4 0-3.5-1.1-1.1-1.1-1.1-3.6v-15.9l-22.1-26.7v42.6q0 2.5-1.1 3.6-1.1 1.1-3.6 1.1z"/>
				</g>
			</g>
		</g>
		<g id="Layer">
			<path id="Layer" class="s1" d="m154.4 197l-65.8 100.4h-36.6l65.8-100.4-65.8-100.4h36.6z"/>
			<path id="Layer" class="s2" d="m224.3 197l-69.9 100.4h-65.8l65.8-100.4-65.8-100.4h65.8z"/>
		</g>
	</g>
</svg>